<svg width="28" height="27" viewBox="0 0 28 27" fill="none" xmlns="http://www.w3.org/2000/svg">
<g id="Change Camera">
<g id="Shape" filter="url(#filter0_d_2768_992)">
<mask id="path-1-outside-1_2768_992" maskUnits="userSpaceOnUse" x="0.76001" y="1" width="26" height="25" fill="black">
<rect fill="white" x="0.76001" y="1" width="26" height="25"/>
<path fill-rule="evenodd" clip-rule="evenodd" d="M23.1212 6.76266C23.4182 6.52573 23.5482 5.95328 22.4031 4.92661C17.4673 0.500886 9.12218 1.27763 4.51943 6.02364L3.32001 7.43608V4.76513L3.31289 4.66336C3.26124 4.29729 2.93489 4.01513 2.54001 4.01513C2.10923 4.01513 1.76001 4.35092 1.76001 4.76513V9.28961C1.76001 9.8419 2.22563 10.2896 2.80001 10.2896H8.01937L8.12521 10.2828C8.50593 10.2331 8.79937 9.91931 8.79937 9.53961L8.79224 9.43784C8.7406 9.07177 8.41425 8.78961 8.01937 8.78961L4.19049 8.78908L4.58277 8.32052L5.6945 7.00897L5.91039 6.7929C9.91564 2.89972 17.1104 2.23184 21.3392 6.02364L21.6294 6.27685C22.4299 6.95319 22.7206 6.99009 22.9821 6.85199L23.0798 6.7929L23.1212 6.76266ZM26.4467 22.5245V18C26.4467 17.4477 25.9811 17 25.4067 17H20.1874L20.0815 17.0068C19.7008 17.0565 19.4074 17.3703 19.4074 17.75L19.4145 17.8518C19.4661 18.2178 19.7925 18.5 20.1874 18.5L24.0163 18.5005L23.624 18.9691L22.5122 20.2806L22.2964 20.4967C18.2911 24.3899 11.0964 25.0578 6.86752 21.266L6.5773 21.0128C5.7768 20.3364 5.48619 20.2995 5.22464 20.4376L5.12698 20.4967L5.08555 20.527C4.78856 20.7639 4.65859 21.3363 5.8036 22.363C10.7394 26.7887 19.0846 26.012 23.6873 21.266L24.8867 19.8535V22.5245L24.8939 22.6263C24.9455 22.9923 25.2718 23.2745 25.6667 23.2745C26.0975 23.2745 26.4467 22.9387 26.4467 22.5245Z"/>
</mask>
<path fill-rule="evenodd" clip-rule="evenodd" d="M23.1212 6.76266C23.4182 6.52573 23.5482 5.95328 22.4031 4.92661C17.4673 0.500886 9.12218 1.27763 4.51943 6.02364L3.32001 7.43608V4.76513L3.31289 4.66336C3.26124 4.29729 2.93489 4.01513 2.54001 4.01513C2.10923 4.01513 1.76001 4.35092 1.76001 4.76513V9.28961C1.76001 9.8419 2.22563 10.2896 2.80001 10.2896H8.01937L8.12521 10.2828C8.50593 10.2331 8.79937 9.91931 8.79937 9.53961L8.79224 9.43784C8.7406 9.07177 8.41425 8.78961 8.01937 8.78961L4.19049 8.78908L4.58277 8.32052L5.6945 7.00897L5.91039 6.7929C9.91564 2.89972 17.1104 2.23184 21.3392 6.02364L21.6294 6.27685C22.4299 6.95319 22.7206 6.99009 22.9821 6.85199L23.0798 6.7929L23.1212 6.76266ZM26.4467 22.5245V18C26.4467 17.4477 25.9811 17 25.4067 17H20.1874L20.0815 17.0068C19.7008 17.0565 19.4074 17.3703 19.4074 17.75L19.4145 17.8518C19.4661 18.2178 19.7925 18.5 20.1874 18.5L24.0163 18.5005L23.624 18.9691L22.5122 20.2806L22.2964 20.4967C18.2911 24.3899 11.0964 25.0578 6.86752 21.266L6.5773 21.0128C5.7768 20.3364 5.48619 20.2995 5.22464 20.4376L5.12698 20.4967L5.08555 20.527C4.78856 20.7639 4.65859 21.3363 5.8036 22.363C10.7394 26.7887 19.0846 26.012 23.6873 21.266L24.8867 19.8535V22.5245L24.8939 22.6263C24.9455 22.9923 25.2718 23.2745 25.6667 23.2745C26.0975 23.2745 26.4467 22.9387 26.4467 22.5245Z" fill="white"/>
<path d="M22.4031 4.92661L22.5367 4.7777V4.7777L22.4031 4.92661ZM23.1212 6.76266L23.2392 6.92436L23.2459 6.91901L23.1212 6.76266ZM4.51943 6.02364L4.37554 5.8841L4.36698 5.89418L4.51943 6.02364ZM3.32001 7.43608H3.12001V7.98058L3.47246 7.56553L3.32001 7.43608ZM3.32001 4.76513H3.5205L3.51952 4.75117L3.32001 4.76513ZM3.31289 4.66336L3.5129 4.64937L3.51093 4.63542L3.31289 4.66336ZM8.01937 10.2896V10.49L8.03228 10.4892L8.01937 10.2896ZM8.12521 10.2828L8.13815 10.4828L8.15108 10.4811L8.12521 10.2828ZM8.79937 9.53961H8.99986L8.99888 9.52565L8.79937 9.53961ZM8.79224 9.43784L8.99225 9.42385L8.99028 9.4099L8.79224 9.43784ZM8.01937 8.78961L8.01934 8.98961H8.01937V8.78961ZM4.19049 8.78908L4.03714 8.66069L3.76226 8.98902L4.19046 8.98908L4.19049 8.78908ZM4.58277 8.32052L4.4302 8.19119L4.42942 8.19213L4.58277 8.32052ZM5.6945 7.00897L5.55302 6.86761L5.54723 6.8734L5.54194 6.87965L5.6945 7.00897ZM5.91039 6.7929L5.77097 6.64947L5.7689 6.65154L5.91039 6.7929ZM21.3392 6.02364L21.2057 6.17256L21.2077 6.17434L21.3392 6.02364ZM21.6294 6.27685L21.4979 6.42757L21.5004 6.42962L21.6294 6.27685ZM22.9821 6.85199L23.0756 7.02915L23.0856 7.02311L22.9821 6.85199ZM23.0798 6.7929L23.1833 6.96402L23.1907 6.95955L23.1977 6.95445L23.0798 6.7929ZM20.1874 17V16.7996L20.1745 16.8004L20.1874 17ZM20.0815 17.0068L20.0686 16.8068L20.0557 16.8085L20.0815 17.0068ZM19.4074 17.75H19.2069L19.2079 17.764L19.4074 17.75ZM19.4145 17.8518L19.2145 17.8658L19.2165 17.8797L19.4145 17.8518ZM20.1874 18.5L20.1874 18.3H20.1874V18.5ZM24.0163 18.5005L24.1696 18.6289L24.4445 18.3006L24.0163 18.3005L24.0163 18.5005ZM23.624 18.9691L23.7765 19.0984L23.7773 19.0975L23.624 18.9691ZM22.5122 20.2806L22.6537 20.422L22.6595 20.4162L22.6648 20.41L22.5122 20.2806ZM22.2964 20.4967L22.4358 20.6401L22.4378 20.6381L22.2964 20.4967ZM6.86752 21.266L7.00105 21.1171L6.999 21.1153L6.86752 21.266ZM6.5773 21.0128L6.70881 20.862L6.70638 20.86L6.5773 21.0128ZM5.22464 20.4376L5.13109 20.2605L5.12111 20.2665L5.22464 20.4376ZM5.12698 20.4967L5.02345 20.3256L5.01605 20.3301L5.00906 20.3352L5.12698 20.4967ZM5.08555 20.527L4.96753 20.3653L4.96082 20.3706L5.08555 20.527ZM5.8036 22.363L5.93712 22.2141H5.93712L5.8036 22.363ZM23.6873 21.266L23.8312 21.4055L23.8398 21.3954L23.6873 21.266ZM24.8867 19.8535H25.0867V19.309L24.7343 19.7241L24.8867 19.8535ZM24.8867 22.5245H24.6862L24.6872 22.5384L24.8867 22.5245ZM24.8939 22.6263L24.6938 22.6402L24.6958 22.6542L24.8939 22.6263ZM22.2696 5.07552C22.8311 5.57896 23.0493 5.94539 23.1086 6.18823C23.1631 6.41126 23.086 6.53491 22.9965 6.60632L23.2459 6.91901C23.4534 6.75349 23.5898 6.47244 23.4972 6.09335C23.4095 5.73407 23.1202 5.30094 22.5367 4.7777L22.2696 5.07552ZM4.663 6.16288C9.20053 1.48412 17.4236 0.730328 22.2696 5.07552L22.5367 4.7777C17.511 0.271444 9.04383 1.07115 4.37586 5.8844L4.663 6.16288ZM3.47246 7.56553L4.67188 6.1531L4.36698 5.89418L3.16756 7.30662L3.47246 7.56553ZM3.12001 4.76513V7.43608H3.52001V4.76513H3.12001ZM3.11338 4.67732L3.1205 4.77909L3.51952 4.75117L3.5124 4.6494L3.11338 4.67732ZM2.54001 4.21513C2.83983 4.21513 3.07776 4.4284 3.11485 4.6913L3.51093 4.63542C3.44472 4.16618 3.02996 3.81513 2.54001 3.81513V4.21513ZM1.96001 4.76513C1.96001 4.4687 2.21222 4.21513 2.54001 4.21513V3.81513C2.00624 3.81513 1.56001 4.23314 1.56001 4.76513H1.96001ZM1.96001 9.28961V4.76513H1.56001V9.28961H1.96001ZM2.80001 10.0896C2.32863 10.0896 1.96001 9.72412 1.96001 9.28961H1.56001C1.56001 9.95968 2.12264 10.4896 2.80001 10.4896V10.0896ZM8.01937 10.0896H2.80001V10.4896H8.01937V10.0896ZM8.1123 10.0832L8.00645 10.09L8.03228 10.4892L8.13812 10.4823L8.1123 10.0832ZM8.59937 9.53961C8.59937 9.81158 8.38783 10.0468 8.09934 10.0844L8.15108 10.4811C8.62402 10.4194 8.99937 10.027 8.99937 9.53961H8.59937ZM8.59273 9.4518L8.59985 9.55357L8.99888 9.52565L8.99176 9.42388L8.59273 9.4518ZM8.01937 8.98961C8.31918 8.98961 8.55711 9.20288 8.59421 9.46578L8.99028 9.4099C8.92408 8.94066 8.50931 8.58961 8.01937 8.58961V8.98961ZM4.19046 8.98908L8.01934 8.98961L8.01939 8.58961L4.19052 8.58908L4.19046 8.98908ZM4.42942 8.19213L4.03714 8.66069L4.34384 8.91746L4.73612 8.4489L4.42942 8.19213ZM5.54194 6.87965L4.43021 8.19119L4.73534 8.44984L5.84707 7.13829L5.54194 6.87965ZM5.7689 6.65154L5.55302 6.86761L5.83598 7.15033L6.05187 6.93426L5.7689 6.65154ZM21.4727 5.87473C17.1541 2.00245 9.84003 2.69429 5.77098 6.64949L6.04979 6.93632C9.99124 3.10514 17.0666 2.46124 21.2057 6.17255L21.4727 5.87473ZM21.7609 6.12614L21.4707 5.87294L21.2077 6.17434L21.498 6.42755L21.7609 6.12614ZM22.8887 6.67513C22.8409 6.70037 22.8008 6.71304 22.7589 6.71599C22.7166 6.71898 22.6595 6.71289 22.5777 6.68241C22.4067 6.61872 22.156 6.45994 21.7585 6.12407L21.5004 6.42962C21.9033 6.77009 22.1983 6.96794 22.4381 7.05726C22.5616 7.10328 22.6763 7.1228 22.787 7.115C22.8982 7.10716 22.9925 7.07266 23.0755 7.02885L22.8887 6.67513ZM22.9762 6.62178L22.8786 6.68087L23.0856 7.02311L23.1833 6.96402L22.9762 6.62178ZM23.0033 6.60112L22.9618 6.63136L23.1977 6.95445L23.2391 6.92421L23.0033 6.60112ZM26.2467 18V22.5245H26.6467V18H26.2467ZM25.4067 17.2C25.8781 17.2 26.2467 17.5655 26.2467 18H26.6467C26.6467 17.3299 26.0841 16.8 25.4067 16.8V17.2ZM20.1874 17.2H25.4067V16.8H20.1874V17.2ZM20.0944 17.2064L20.2003 17.1996L20.1745 16.8004L20.0686 16.8073L20.0944 17.2064ZM19.6074 17.75C19.6074 17.478 19.8189 17.2428 20.1074 17.2052L20.0557 16.8085C19.5827 16.8702 19.2074 17.2626 19.2074 17.75H19.6074ZM19.614 17.8378L19.6069 17.736L19.2079 17.764L19.215 17.8657L19.614 17.8378ZM20.1874 18.3C19.8876 18.3 19.6496 18.0867 19.6125 17.8238L19.2165 17.8797C19.2827 18.349 19.6974 18.7 20.1874 18.7V18.3ZM24.0163 18.3005L20.1874 18.3L20.1873 18.7L24.0162 18.7005L24.0163 18.3005ZM23.7773 19.0975L24.1696 18.6289L23.8629 18.3722L23.4706 18.8407L23.7773 19.0975ZM22.6648 20.41L23.7765 19.0984L23.4714 18.8398L22.3597 20.1513L22.6648 20.41ZM22.4378 20.6381L22.6537 20.422L22.3708 20.1393L22.1549 20.3553L22.4378 20.6381ZM6.734 21.4149C11.0526 25.2872 18.3667 24.5953 22.4358 20.6401L22.157 20.3533C18.2155 24.1845 11.1401 24.8284 7.00104 21.1171L6.734 21.4149ZM6.44582 21.1635L6.73603 21.4167L6.999 21.1153L6.70879 20.8621L6.44582 21.1635ZM5.31802 20.6145C5.36582 20.5892 5.40594 20.5766 5.44782 20.5736C5.49018 20.5706 5.54722 20.5767 5.62906 20.6072C5.80006 20.6709 6.0507 20.8297 6.44823 21.1655L6.70638 20.86C6.3034 20.5195 6.00849 20.3217 5.76867 20.2324C5.6451 20.1863 5.53041 20.1668 5.4197 20.1746C5.30851 20.1824 5.21423 20.2169 5.13125 20.2608L5.31802 20.6145ZM5.23051 20.6678L5.32817 20.6087L5.12111 20.2665L5.02345 20.3256L5.23051 20.6678ZM5.20346 20.6885L5.24489 20.6583L5.00906 20.3352L4.96763 20.3654L5.20346 20.6885ZM5.93712 22.2141C5.37565 21.7107 5.15741 21.3442 5.09812 21.1014C5.04366 20.8783 5.12076 20.7547 5.21027 20.6833L4.96082 20.3706C4.75334 20.5361 4.61697 20.8172 4.70953 21.1963C4.79726 21.5555 5.08654 21.9887 5.67008 22.5119L5.93712 22.2141ZM23.5437 21.1267C19.0062 25.8055 10.7831 26.5593 5.93712 22.2141L5.67008 22.5119C10.6957 27.0182 19.1629 26.2185 23.8309 21.4052L23.5437 21.1267ZM24.7343 19.7241L23.5349 21.1365L23.8398 21.3954L25.0392 19.983L24.7343 19.7241ZM25.0867 22.5245V19.8535H24.6867V22.5245H25.0867ZM25.0934 22.6123L25.0862 22.5105L24.6872 22.5384L24.6943 22.6402L25.0934 22.6123ZM25.6667 23.0745C25.3669 23.0745 25.129 22.8612 25.0919 22.5983L24.6958 22.6542C24.762 23.1234 25.1768 23.4745 25.6667 23.4745V23.0745ZM26.2467 22.5245C26.2467 22.8209 25.9945 23.0745 25.6667 23.0745V23.4745C26.2005 23.4745 26.6467 23.0565 26.6467 22.5245H26.2467Z" fill="black" fill-opacity="0.2" mask="url(#path-1-outside-1_2768_992)"/>
</g>
</g>
<defs>
<filter id="filter0_d_2768_992" x="0.559998" y="0.799805" width="27.0867" height="25.6899" filterUnits="userSpaceOnUse" color-interpolation-filters="sRGB">
<feFlood flood-opacity="0" result="BackgroundImageFix"/>
<feColorMatrix in="SourceAlpha" type="matrix" values="0 0 0 0 0 0 0 0 0 0 0 0 0 0 0 0 0 0 127 0" result="hardAlpha"/>
<feOffset/>
<feGaussianBlur stdDeviation="0.5"/>
<feColorMatrix type="matrix" values="0 0 0 0 0.14902 0 0 0 0 0.14902 0 0 0 0 0.14902 0 0 0 0.4 0"/>
<feBlend mode="normal" in2="BackgroundImageFix" result="effect1_dropShadow_2768_992"/>
<feBlend mode="normal" in="SourceGraphic" in2="effect1_dropShadow_2768_992" result="shape"/>
</filter>
</defs>
</svg>
