<svg width="25" height="22" viewBox="0 0 25 22" fill="none" xmlns="http://www.w3.org/2000/svg">
<g id="Picture">
<path id="Shape" fill-rule="evenodd" clip-rule="evenodd" d="M17.372 0.915938C16.9889 0.344954 16.3306 0 15.624 0H9.69768C8.99149 0 8.33353 0.344534 7.9504 0.914949L6.85721 2.54253C6.66565 2.82773 6.33667 3 5.98357 3H5.11994C2.53525 3 0.439941 5.01472 0.439941 7.5V17.5C0.439941 19.9853 2.53525 22 5.11994 22H20.1999C22.7846 22 24.8799 19.9853 24.8799 17.5V7.5C24.8799 5.01472 22.7846 3 20.1999 3H19.3367L19.2056 2.99203C18.9033 2.95511 18.6303 2.79184 18.4627 2.54203L17.372 0.915938ZM9.69768 1.5H15.624C15.8007 1.5 15.9652 1.58624 16.061 1.72898L17.1518 3.35508C17.5686 3.97643 18.2491 4.38728 19.009 4.48008L19.2383 4.49701L20.1999 4.5C21.9231 4.5 23.3199 5.84315 23.3199 7.5V17.5C23.3199 19.1569 21.9231 20.5 20.1999 20.5H5.11994C3.39681 20.5 1.99994 19.1569 1.99994 17.5V7.5C1.99994 5.84315 3.39681 4.5 5.11994 4.5H5.98357C6.86632 4.5 7.68876 4.06933 8.16767 3.35631L9.26086 1.72874C9.35664 1.58613 9.52113 1.5 9.69768 1.5ZM12.6599 6.5C15.9626 6.5 18.6399 9.07436 18.6399 12.25C18.6399 15.4256 15.9626 18 12.6599 18C9.35728 18 6.67994 15.4256 6.67994 12.25C6.67994 9.07436 9.35728 6.5 12.6599 6.5ZM8.23994 12.25C8.23994 9.90279 10.2188 8 12.6599 8C15.101 8 17.0799 9.90279 17.0799 12.25C17.0799 14.5972 15.101 16.5 12.6599 16.5C10.2188 16.5 8.23994 14.5972 8.23994 12.25Z" fill="black" fill-opacity="0.4"/>
</g>
</svg>
